<svg xmlns="http://www.w3.org/2000/svg" width="32.305" height="34.459" viewBox="0 0 32.305 34.459">
  <path id="Icon_metro-calendar" data-name="Icon metro-calendar" d="M13.339,14.85h4.307v4.307H13.339Zm6.461,0h4.307v4.307H19.8Zm6.461,0h4.307v4.307H26.261ZM6.878,27.772h4.307V32.08H6.878Zm6.461,0h4.307V32.08H13.339Zm6.461,0h4.307V32.08H19.8Zm-6.461-6.461h4.307v4.307H13.339Zm6.461,0h4.307v4.307H19.8Zm6.461,0h4.307v4.307H26.261Zm-19.383,0h4.307v4.307H6.878ZM30.569,1.928V4.082H26.261V1.928H11.185V4.082H6.878V1.928H2.571V36.387H34.876V1.928H30.569Zm2.154,32.305h-28V10.543h28Z" transform="translate(-2.571 -1.928)"/>
</svg>
