<svg xmlns="http://www.w3.org/2000/svg" width="78" height="79" viewBox="0 0 78 79">
  <g id="Group_693" data-name="Group 693" transform="translate(-41.045 -73.543)">
    <g id="Ellipse_27" data-name="Ellipse 27" transform="translate(41.045 73.543)" fill="#fff" stroke="#00c7dd" stroke-width="3">
      <ellipse cx="39" cy="39.5" rx="39" ry="39.5" stroke="none"/>
      <ellipse cx="39" cy="39.5" rx="37.5" ry="38" fill="none"/>
    </g>
    <path id="Icon_zocial-cart" data-name="Icon zocial-cart" d="M-2.07,6.4a1.67,1.67,0,0,1,.485-1.231A1.666,1.666,0,0,1-.354,4.68H8.412a1.71,1.71,0,0,1,1.063.354,1.657,1.657,0,0,1,.616.951l.9,3.656H36.128l.262-.783a1.543,1.543,0,0,1,1.6-1.194,1.148,1.148,0,0,1,.485.075,1.607,1.607,0,0,1,.9.6,1.63,1.63,0,0,1,.336,1.007,2.084,2.084,0,0,1-.075.485l-4.4,14.661a1.6,1.6,0,0,1-.6.9,1.639,1.639,0,0,1-1.007.336H12.777a1.658,1.658,0,0,1-1.063-.372,1.742,1.742,0,0,1-.616-.934L7.07,8.075H-.354A1.687,1.687,0,0,1-1.566,7.59,1.592,1.592,0,0,1-2.07,6.4Zm13.877,6.64,2.313,9.251H32.362l.073-.335,2.687-8.916H11.807Zm1.567,18.055A3.273,3.273,0,0,1,14.4,28.667a3.369,3.369,0,0,1,2.443-1.007,3.431,3.431,0,0,1,0,6.863A3.368,3.368,0,0,1,14.4,33.516,3.278,3.278,0,0,1,13.374,31.091ZM15.8,15.946h6.192v3.431H16.544Zm9.139,3.432.037-3.431h6.043l-.9,3.431Zm1.38,11.713a3.275,3.275,0,0,1,1.027-2.425,3.365,3.365,0,0,1,2.443-1.007,3.431,3.431,0,0,1,0,6.863,3.366,3.366,0,0,1-2.443-1.006A3.275,3.275,0,0,1,26.318,31.091Z" transform="translate(58.133 95.9)" fill="#00c7dd"/>
  </g>
</svg>
