<svg xmlns="http://www.w3.org/2000/svg" width="78" height="79" viewBox="0 0 78 79">
  <g id="Group_694" data-name="Group 694" transform="translate(-41.13 -73.543)">
    <g id="Ellipse_27" data-name="Ellipse 27" transform="translate(41.13 73.543)" fill="#fff" stroke="#0fd916" stroke-width="3">
      <ellipse cx="39" cy="39.5" rx="39" ry="39.5" stroke="none"/>
      <ellipse cx="39" cy="39.5" rx="37.5" ry="38" fill="none"/>
    </g>
    <path id="Icon_awesome-chart-line" data-name="Icon awesome-chart-line" d="M35.71,27.539H4.608V5.652A1.152,1.152,0,0,0,3.456,4.5h-2.3A1.152,1.152,0,0,0,0,5.652V29.842a2.3,2.3,0,0,0,2.3,2.3H35.71a1.152,1.152,0,0,0,1.152-1.152v-2.3A1.152,1.152,0,0,0,35.71,27.539ZM33.406,6.8h-8.5a1.728,1.728,0,0,0-1.222,2.95l2.333,2.333-5.282,5.283-5.282-5.282a2.3,2.3,0,0,0-3.258,0L7.249,17.032a1.152,1.152,0,0,0,0,1.629L8.878,20.29a1.152,1.152,0,0,0,1.629,0l3.316-3.317,5.282,5.282a2.3,2.3,0,0,0,3.258,0l6.912-6.912,2.333,2.333a1.728,1.728,0,0,0,2.95-1.222v-8.5A1.151,1.151,0,0,0,33.406,6.8Z" transform="translate(62.157 94.481)" fill="#0fd916"/>
  </g>
</svg>
