<svg xmlns="http://www.w3.org/2000/svg" width="78" height="79" viewBox="0 0 78 79">
  <g id="Group_695" data-name="Group 695" transform="translate(-41.215 -73.543)">
    <g id="Ellipse_27" data-name="Ellipse 27" transform="translate(41.215 73.543)" fill="#fff" stroke="#000" stroke-width="3">
      <ellipse cx="39" cy="39.5" rx="39" ry="39.5" stroke="none"/>
      <ellipse cx="39" cy="39.5" rx="37.5" ry="38" fill="none"/>
    </g>
    <path id="Icon_material-perm-device-information" data-name="Icon material-perm-device-information" d="M19.789,10.716H16.716v3.072h3.072Zm0,6.144H16.716v9.216h3.072ZM25.933,1.515,10.572,1.5A3.081,3.081,0,0,0,7.5,4.572V32.221a3.081,3.081,0,0,0,3.072,3.072H25.933a3.081,3.081,0,0,0,3.072-3.072V4.572a3.068,3.068,0,0,0-3.072-3.057Zm0,27.634H10.572V7.644H25.933Z" transform="translate(62.244 94.436)"/>
  </g>
</svg>
