<svg xmlns="http://www.w3.org/2000/svg" width="79" height="79" viewBox="0 0 79 79">
  <g id="Group_692" data-name="Group 692" transform="translate(-40.959 -73.543)">
    <g id="Ellipse_27" data-name="Ellipse 27" transform="translate(40.959 73.543)" fill="#fff" stroke="#9d0000" stroke-width="3">
      <circle cx="39.5" cy="39.5" r="39.5" stroke="none"/>
      <circle cx="39.5" cy="39.5" r="38" fill="none"/>
    </g>
    <path id="Icon_metro-money" data-name="Icon metro-money" d="M21.938,22.631c-4.656-1.21-6.153-2.451-6.153-4.4,0-2.236,2.061-3.8,5.538-3.8,3.651,0,5,1.744,5.128,4.307h4.533A8.166,8.166,0,0,0,24.4,10.919V6.427H18.246v4.431c-3.979.872-7.179,3.436-7.179,7.4,0,4.738,3.928,7.1,9.64,8.471,5.138,1.231,6.153,3.025,6.153,4.954,0,1.405-.995,3.661-5.538,3.661-4.225,0-5.9-1.9-6.112-4.307H10.688c.256,4.492,3.61,7,7.559,7.856v4.451H24.4v-4.41c3.99-.769,7.179-3.077,7.179-7.292,0-5.8-4.984-7.794-9.64-9.015Z" transform="translate(59.063 87.934)" fill="#9d0000"/>
  </g>
</svg>
